<svg version="1.1" id="Layer_1" xmlns="http://www.w3.org/2000/svg" xmlns:xlink="http://www.w3.org/1999/xlink" x="0px" y="0px"
	 width="100%" viewBox="0 0 500 500" enable-background="new 0 0 500 500" xml:space="preserve">
<path fill="#000000" opacity="1.000000" stroke="none" 
	d="
M328.000000,501.000000 
	C218.666687,501.000000 109.833382,501.000000 1.000058,501.000000 
	C1.000039,334.333405 1.000039,167.666794 1.000019,1.000148 
	C167.666565,1.000099 334.333130,1.000099 500.999756,1.000049 
	C500.999847,167.666519 500.999847,334.333038 500.999939,500.999786 
	C443.500000,501.000000 386.000000,501.000000 328.000000,501.000000 
M255.874878,345.119537 
	C255.874878,345.119537 255.638199,345.171783 255.901215,345.753510 
	C256.607330,346.184113 257.313477,346.614716 258.014069,346.980408 
	C258.014069,346.980408 257.950745,346.995483 258.184937,347.547485 
	C258.831268,347.983826 259.477600,348.420166 260.047302,348.993988 
	C260.047302,348.993988 260.143127,348.868164 260.542236,349.420654 
	C264.578705,353.014832 268.845337,355.744385 275.187439,353.052124 
	C277.321564,350.398926 279.455688,347.745758 281.890137,344.178589 
	C281.994476,341.526306 282.182983,338.874268 282.190094,336.221741 
	C282.257690,310.979156 282.285339,285.736450 282.347504,260.493866 
	C282.361084,254.978455 282.466187,249.463272 282.419800,243.583694 
	C282.419800,243.583694 282.102417,243.374023 282.323883,242.467087 
	C282.243988,241.854996 282.164093,241.242920 282.224091,240.502991 
	C282.224091,240.502991 282.089020,240.370010 282.350311,239.450134 
	C282.255707,238.826477 282.161133,238.202805 282.300354,237.229904 
	C282.316437,237.092178 282.371613,236.944763 282.340424,236.818741 
	C282.276093,236.558777 282.165649,236.310242 282.239899,235.179977 
	C282.070374,233.388885 281.900848,231.597794 281.725464,229.101532 
	C279.586670,220.969284 274.238373,215.563354 266.852661,212.100098 
	C257.393890,207.664780 247.788406,203.542480 238.324951,199.116821 
	C232.022110,196.169250 225.957932,192.699524 219.601837,189.880905 
	C213.148819,187.019318 207.261734,188.850220 204.951645,193.891571 
	C202.263962,199.756943 204.403076,205.790787 210.760864,208.887299 
	C219.556183,213.170944 228.521988,217.104553 237.919907,221.707397 
	C240.606689,222.860840 243.293457,224.014297 245.945511,225.052307 
	C245.945511,225.052307 245.830246,225.087616 246.304428,225.605118 
	C247.199249,225.882965 248.094055,226.160797 248.833633,226.220810 
	C248.833633,226.220810 248.617020,226.377747 249.124619,226.847473 
	C252.412979,228.588516 255.701355,230.329559 259.001129,231.999527 
	C259.001129,231.999527 258.930084,231.987991 259.082764,232.524048 
	C259.392914,232.706299 259.703033,232.888550 260.009369,232.988953 
	C260.009369,232.988953 259.927551,232.992645 260.105255,233.597153 
	C260.747955,234.401627 261.390656,235.206100 262.045959,235.969955 
	C262.045959,235.969955 262.003693,235.965225 262.112457,236.780029 
	C262.357971,238.235184 262.809204,239.689301 262.816467,241.145645 
	C262.874054,252.718277 262.783813,264.291779 262.865448,275.864136 
	C262.938873,286.273499 263.172516,296.681732 263.184662,307.666687 
	C263.199524,308.062408 263.214386,308.458160 262.852448,309.436005 
	C262.246796,310.644501 261.641174,311.852966 261.030029,313.027802 
	C261.030029,313.027802 261.059479,313.045532 260.263336,313.195465 
	C258.494324,313.491425 256.545502,314.409027 254.992065,313.959717 
	C251.236862,312.873566 247.666183,311.149475 244.111145,309.941803 
	C244.111145,309.941803 244.370087,309.850952 244.074387,309.228149 
	C243.072968,308.699890 242.071548,308.171600 241.301697,307.812225 
	C241.301697,307.812225 241.469620,307.579956 241.084839,307.049927 
	C240.136444,306.511993 239.188049,305.974091 238.299423,305.669250 
	C238.299423,305.669250 238.531555,305.605835 238.272339,305.222137 
	C238.272339,305.222137 237.851898,305.034424 237.520569,304.522278 
	C236.780487,304.184387 236.040421,303.846466 235.310440,303.581116 
	C235.310440,303.581116 235.382248,303.566620 234.969849,303.043243 
	C225.921906,296.127380 216.147720,293.796082 204.719894,296.362000 
	C196.514313,298.204407 187.942596,297.780396 179.989777,294.016907 
	C179.989777,294.016907 180.039215,293.999146 179.827423,293.481598 
	C179.388107,293.134521 178.948776,292.787445 178.377731,292.889740 
	C178.377731,292.889740 178.525375,292.437836 178.172424,291.798065 
	C177.132965,288.029633 175.221069,284.267975 175.191696,280.491699 
	C174.950790,249.530731 175.141998,218.566681 175.001587,187.604462 
	C174.969666,180.565338 175.990891,174.050308 180.412582,168.412521 
	C180.412582,168.412521 180.404999,168.510483 180.936584,168.255051 
	C181.314346,167.814407 181.692093,167.373764 182.528854,166.775101 
	C182.528854,166.775101 182.848633,166.409851 183.348221,166.239197 
	C183.887619,165.808060 184.427002,165.376923 184.979340,164.991318 
	C184.979340,164.991318 184.950287,164.950439 185.747910,164.871246 
	C189.144119,164.239517 192.538239,163.071747 195.936844,163.058624 
	C231.572189,162.920975 267.208496,162.907303 302.843750,163.054672 
	C306.563019,163.070053 310.277069,164.341599 314.001221,164.994110 
	C314.001221,164.994110 313.971863,165.016953 314.311340,165.598053 
	C320.411407,169.732635 322.440979,175.583908 322.387787,182.795258 
	C322.180298,210.942673 321.787750,239.101532 322.388214,267.236389 
	C322.666382,280.270691 321.538239,291.798615 309.000000,299.000000 
	C309.000000,299.000000 309.030090,299.034119 308.368927,299.191620 
	C307.281952,300.437256 305.628387,301.524017 305.225281,302.961426 
	C304.369537,306.013062 302.853668,309.956879 304.069366,312.202881 
	C305.237823,314.361603 309.577515,316.006470 312.407318,315.844360 
	C322.023590,315.293640 329.909760,311.228912 334.812225,301.592163 
	C335.632477,300.559631 336.452728,299.527069 337.817627,297.994659 
	C339.139099,292.208801 341.537506,286.435516 341.605255,280.635010 
	C342.010101,245.973145 342.040253,211.303619 341.751495,176.640381 
	C341.707886,171.404251 339.338928,166.187469 338.002838,161.002014 
	C338.002838,161.002014 338.054718,160.973190 337.994446,160.314331 
	C337.327332,159.465256 336.660187,158.616165 335.936676,157.485092 
	C335.936676,157.485092 335.808563,157.227631 335.825897,156.674866 
	C335.445343,156.291367 335.064819,155.907883 334.635925,155.328354 
	C334.635925,155.328354 334.439423,155.282074 334.144409,154.712738 
	C332.297302,152.973755 330.450226,151.234787 328.571716,149.344467 
	C328.571716,149.344467 328.418274,149.362869 328.240204,148.960434 
	C328.054535,148.708450 327.806213,148.565063 327.480865,148.424927 
	C327.480865,148.424927 327.374817,148.432907 326.968445,147.879150 
	C324.985260,147.207474 323.002045,146.535812 320.997070,145.949707 
	C320.997070,145.949707 321.082672,145.971313 320.662292,145.318085 
	C316.418396,144.731583 312.176849,143.655197 307.930267,143.635071 
	C269.382568,143.452332 230.833847,143.377533 192.285904,143.472595 
	C185.400238,143.489563 178.438843,144.145706 172.790848,148.745483 
	C172.790848,148.745483 172.809479,148.610107 172.138489,148.829208 
	C169.735367,151.217865 167.332245,153.606537 164.991196,155.994522 
	C164.991196,155.994522 164.969070,155.936523 164.361389,156.183914 
	C163.548141,157.451508 162.734879,158.719101 161.987793,159.967575 
	C161.987793,159.967575 161.964294,159.902847 161.408112,160.162796 
	C161.117523,160.693863 160.826935,161.224915 160.615540,161.760193 
	C160.615540,161.760193 160.581009,161.688812 160.156723,162.263245 
	C158.749252,168.179443 156.183243,174.084213 156.124664,180.013733 
	C155.776566,215.241989 155.798828,250.478729 156.265930,285.705078 
	C156.338409,291.170898 159.337692,296.597870 161.013275,301.993500 
	C161.013275,301.993500 160.956406,301.984436 160.979340,302.608337 
	C161.315887,303.092529 161.652420,303.576691 162.006744,304.002350 
	C162.006744,304.002350 161.945633,304.004089 162.081650,304.677002 
	C164.575806,306.958740 167.069962,309.240509 169.610703,311.587128 
	C169.610703,311.587128 169.678696,311.545227 170.066849,311.939819 
	C170.580765,312.147095 171.094681,312.354370 171.642761,312.625153 
	C171.642761,312.625153 171.708954,312.596466 172.249435,312.995209 
	C173.529984,313.337341 174.810532,313.679504 176.697037,314.467560 
	C185.759995,314.989471 194.821487,315.874451 203.886398,315.910889 
	C210.361862,315.936920 216.368301,316.947937 222.000519,320.002838 
	C222.000519,320.002838 221.927505,320.016418 222.214874,320.602264 
	C223.469177,321.430267 224.723480,322.258270 225.982910,323.019135 
	C225.982910,323.019135 225.915665,323.022430 226.134003,323.581787 
	C226.634491,323.918823 227.134979,324.255859 227.598770,324.472321 
	C227.598770,324.472321 227.479813,324.513947 227.881363,325.012390 
	C228.928009,325.682983 229.974670,326.353607 231.020645,326.968781 
	C231.020645,326.968781 230.968094,326.986359 231.274750,327.558868 
	C232.524567,328.384827 233.774399,329.210785 235.014801,329.971497 
	C235.014801,329.971497 234.951126,329.988525 235.296997,330.549469 
	C236.753769,331.546783 238.210526,332.544098 239.646667,333.449158 
	C239.646667,333.449158 239.555618,333.474518 239.983353,333.977997 
	C242.885101,336.126038 245.786835,338.274078 248.772797,340.284119 
	C248.772797,340.284119 248.633484,340.201996 248.885803,340.749146 
	C249.266068,340.854340 249.646347,340.959534 250.004166,340.993378 
	C250.004166,340.993378 249.932770,341.015717 250.253845,341.577820 
	C251.507477,342.391266 252.761093,343.204742 254.016800,343.976074 
	C254.016800,343.976074 253.976990,343.989990 254.261688,344.546509 
	C254.816376,344.816498 255.371063,345.086487 255.874878,345.119537 
M232.664993,263.352539 
	C232.788132,267.856415 234.866943,270.975586 239.356400,271.925537 
	C245.469955,273.219116 250.634232,271.089569 252.913223,266.221313 
	C254.880478,262.019012 254.594223,257.960907 251.293747,254.249100 
	C248.198196,250.767807 244.207001,250.134583 240.419312,251.599777 
	C235.752594,253.405014 232.560638,257.030151 232.664993,263.352539 
z"/>
<path fill="#E5752B" opacity="1.000000" stroke="none" 
	d="
M337.272980,298.494537 
	C336.452728,299.527069 335.632477,300.559631 334.284668,301.915833 
	C332.402313,303.460724 331.199280,304.934357 329.664917,305.856842 
	C324.618164,308.891052 319.671082,312.313995 314.222931,314.348389 
	C312.029999,315.167297 307.630493,313.555145 306.109955,311.595093 
	C304.895081,310.029053 306.347076,306.221741 306.951660,303.483490 
	C307.296082,301.923462 308.314941,300.512299 309.030090,299.034119 
	C309.030090,299.034119 309.000000,299.000000 309.375183,299.003784 
	C318.559296,295.369843 323.850616,289.074432 323.874695,279.286469 
	C323.957825,245.483032 323.944366,211.679108 323.854523,177.875671 
	C323.838776,171.951141 319.427917,166.563446 313.971863,165.016953 
	C313.971863,165.016953 314.001221,164.994110 313.855255,164.690247 
	C309.659088,163.286591 305.617462,161.271362 301.557343,161.233490 
	C272.114349,160.958771 242.667374,161.016571 213.222244,161.126465 
	C205.585419,161.154968 197.937042,161.573776 190.324753,162.192108 
	C188.470810,162.342682 186.738525,163.990860 184.950287,164.950439 
	C184.950287,164.950439 184.979340,164.991318 184.701294,164.993988 
	C183.898376,165.467743 183.373505,165.938797 182.848633,166.409851 
	C182.848633,166.409851 182.528854,166.775101 182.008179,166.945724 
	C181.126678,167.581055 180.765839,168.045776 180.404999,168.510483 
	C180.404999,168.510483 180.412582,168.412521 180.112289,168.485184 
	C175.206985,171.225723 174.043427,175.527679 174.045135,180.459167 
	C174.052017,200.280640 174.007675,220.102127 173.999939,239.923599 
	C173.994217,254.581268 173.999344,269.238953 174.037109,283.896576 
	C174.046371,287.487549 174.450287,290.947479 178.525375,292.437836 
	C178.525375,292.437836 178.377731,292.889740 178.532700,292.944519 
	C179.138184,293.332550 179.588699,293.665863 180.039215,293.999146 
	C180.039215,293.999146 179.989777,294.016907 180.123398,294.323059 
	C186.579071,299.280090 193.989655,299.117920 201.065872,298.290344 
	C209.365707,297.319672 217.476929,296.209686 225.492447,299.388245 
	C228.818375,300.707123 232.087372,302.169495 235.382248,303.566620 
	C235.382248,303.566620 235.310440,303.581116 235.432556,303.835205 
	C236.039658,304.476379 236.524658,304.863434 237.250198,305.354431 
	C237.837677,305.507507 238.184616,305.556671 238.531555,305.605835 
	C238.531555,305.605835 238.299423,305.669250 238.395096,305.896545 
	C239.483719,306.609222 240.476669,307.094604 241.469604,307.579956 
	C241.469620,307.579956 241.301697,307.812225 241.389435,307.996704 
	C242.441467,308.737732 243.405777,309.294342 244.370087,309.850952 
	C244.370087,309.850952 244.111145,309.941803 244.282501,310.095215 
	C245.907898,311.289398 247.222519,312.752075 248.843475,313.287750 
	C252.872604,314.619232 257.082642,317.078888 261.059479,313.045532 
	C261.059479,313.045532 261.030029,313.027802 261.343323,312.953613 
	C262.180847,311.537567 262.705048,310.195709 263.229248,308.853882 
	C263.214386,308.458160 263.199524,308.062408 263.407593,306.983276 
	C263.758545,284.510529 263.930725,262.721161 263.926453,240.931793 
	C263.926147,239.276154 262.673981,237.620743 262.003693,235.965225 
	C262.003693,235.965225 262.045959,235.969955 261.981689,235.672485 
	C261.254089,234.580902 260.590820,233.786774 259.927551,232.992645 
	C259.927551,232.992645 260.009369,232.988953 259.868774,232.813782 
	C259.462158,232.421753 259.196136,232.204865 258.930084,231.987991 
	C258.930084,231.987991 259.001129,231.999527 258.914185,231.693512 
	C255.423813,229.717575 252.020416,228.047668 248.617020,226.377747 
	C248.617020,226.377747 248.833633,226.220810 248.648804,226.087677 
	C247.586060,225.665573 246.708145,225.376602 245.830246,225.087616 
	C245.830246,225.087616 245.945511,225.052307 245.788467,224.795105 
	C242.892548,223.421295 240.153656,222.304688 237.414780,221.188065 
	C228.521988,217.104553 219.556183,213.170944 210.760864,208.887299 
	C204.403076,205.790787 202.263962,199.756943 204.951645,193.891571 
	C207.261734,188.850220 213.148819,187.019318 219.601837,189.880905 
	C225.957932,192.699524 232.022110,196.169250 238.324951,199.116821 
	C247.788406,203.542480 257.393890,207.664780 266.852661,212.100098 
	C274.238373,215.563354 279.586670,220.969284 281.548340,229.845459 
	C281.235657,231.738037 280.982758,232.886581 280.981567,234.035370 
	C280.945343,269.423431 280.924866,304.811493 280.947021,340.199524 
	C280.948029,341.830688 281.366028,343.461548 281.589813,345.092560 
	C279.455688,347.745758 277.321564,350.398926 274.408386,353.038818 
	C269.133911,351.639740 264.638519,350.253937 260.143127,348.868164 
	C260.143127,348.868164 260.047302,348.993988 259.981628,348.636200 
	C259.260895,347.850769 258.605835,347.423126 257.950745,346.995483 
	C257.950745,346.995483 258.014069,346.980408 257.866394,346.735107 
	C257.025208,346.050446 256.331726,345.611115 255.638199,345.171783 
	C255.638199,345.171783 255.874878,345.119537 255.728348,344.977478 
	C255.046875,344.553589 254.511932,344.271790 253.976990,343.989990 
	C253.976990,343.989990 254.016800,343.976074 253.925262,343.672424 
	C252.533417,342.584442 251.233093,341.800079 249.932770,341.015717 
	C249.932770,341.015717 250.004166,340.993378 249.821198,340.830383 
	C249.303314,340.512238 248.968399,340.357117 248.633484,340.201996 
	C248.633484,340.201996 248.772797,340.284119 248.701355,340.001068 
	C245.605148,337.636841 242.580383,335.555664 239.555634,333.474518 
	C239.555618,333.474518 239.646667,333.449158 239.568481,333.152771 
	C237.977234,331.900421 236.464188,330.944489 234.951126,329.988525 
	C234.951126,329.988525 235.014801,329.971497 234.912460,329.685638 
	C233.529434,328.595306 232.248764,327.790833 230.968079,326.986389 
	C230.968094,326.986359 231.020645,326.968781 230.921616,326.676788 
	C229.708328,325.761169 228.594070,325.137543 227.479813,324.513947 
	C227.479813,324.513947 227.598770,324.472321 227.491089,324.248352 
	C226.894165,323.690430 226.404907,323.356415 225.915665,323.022430 
	C225.915665,323.022430 225.982910,323.019135 225.896637,322.713470 
	C224.516083,321.610657 223.221802,320.813538 221.927505,320.016418 
	C221.927505,320.016418 222.000519,320.002838 221.831970,319.732117 
	C217.428040,317.952301 213.274094,315.494202 208.941147,315.122406 
	C198.422424,314.219818 187.820465,314.287354 176.939606,313.756836 
	C174.987762,313.231903 173.348358,312.914215 171.708954,312.596497 
	C171.708954,312.596466 171.642761,312.625153 171.471054,312.339417 
	C170.759125,311.884216 170.218918,311.714722 169.678696,311.545227 
	C169.678696,311.545227 169.610703,311.587128 169.507843,311.214203 
	C166.918533,308.562225 164.432083,306.283142 161.945633,304.004089 
	C161.945633,304.004089 162.006744,304.002350 161.952408,303.736877 
	C161.584183,302.975739 161.270294,302.480103 160.956406,301.984436 
	C160.956406,301.984436 161.013275,301.993500 161.000519,301.626526 
	C159.953812,296.749390 158.257568,292.274567 158.014618,287.722229 
	C157.379028,275.811523 157.143814,263.866241 157.177597,251.935989 
	C157.233521,232.182907 157.583038,212.430115 157.894852,192.678543 
	C158.043411,183.267929 156.743515,173.706268 160.617325,164.631271 
	C160.969589,163.805984 160.610031,162.676849 160.581009,161.688812 
	C160.581009,161.688812 160.615540,161.760193 160.841278,161.605927 
	C161.366119,160.935394 161.665207,160.419113 161.964294,159.902847 
	C161.964294,159.902847 161.987793,159.967575 162.293396,159.889618 
	C163.389038,158.519958 164.179062,157.228241 164.969070,155.936523 
	C164.969070,155.936523 164.991196,155.994522 165.262924,155.845062 
	C167.959595,153.333771 170.384537,150.971939 172.809479,148.610107 
	C172.809479,148.610107 172.790848,148.745483 173.122269,148.737564 
	C179.610031,147.492935 185.766235,145.191528 191.922760,145.190643 
	C234.976028,145.184525 278.029358,145.654037 321.082672,145.971313 
	C321.082672,145.971313 320.997070,145.949707 321.225006,146.183029 
	C323.426910,147.088531 325.400848,147.760712 327.374817,148.432907 
	C327.374817,148.432907 327.480865,148.424927 327.564758,148.689987 
	C327.837677,149.218414 328.094208,149.354355 328.418274,149.362869 
	C328.418274,149.362869 328.571716,149.344467 328.637848,149.758957 
	C330.615784,151.876328 332.527618,153.579193 334.439423,155.282074 
	C334.439423,155.282074 334.635925,155.328354 334.687439,155.696091 
	C335.095520,156.451767 335.452026,156.839691 335.808563,157.227631 
	C335.808563,157.227631 335.936676,157.485092 336.018768,157.965363 
	C336.752136,159.288147 337.403412,160.130676 338.054718,160.973206 
	C338.054718,160.973190 338.002838,161.002014 338.029663,161.402252 
	C338.764099,166.894211 340.229156,172.011322 340.059448,177.073639 
	C338.702911,217.538696 343.569458,258.149780 337.272980,298.494537 
z"/>
<path fill="#B77041" opacity="1.000000" stroke="none" 
	d="
M314.141602,165.307495 
	C319.427917,166.563446 323.838776,171.951141 323.854523,177.875671 
	C323.944366,211.679108 323.957825,245.483032 323.874695,279.286469 
	C323.850616,289.074432 318.559296,295.369843 309.389587,299.020813 
	C321.538239,291.798615 322.666382,280.270691 322.388214,267.236389 
	C321.787750,239.101532 322.180298,210.942673 322.387787,182.795258 
	C322.440979,175.583908 320.411407,169.732635 314.141602,165.307495 
z"/>
<path fill="#C17C48" opacity="1.000000" stroke="none" 
	d="
M320.872498,145.644699 
	C278.029358,145.654037 234.976028,145.184525 191.922760,145.190643 
	C185.766235,145.191528 179.610031,147.492935 173.054779,148.726852 
	C178.438843,144.145706 185.400238,143.489563 192.285904,143.472595 
	C230.833847,143.377533 269.382568,143.452332 307.930267,143.635071 
	C312.176849,143.655197 316.418396,144.731583 320.872498,145.644699 
z"/>
<path fill="#A9683E" opacity="1.000000" stroke="none" 
	d="
M337.545288,298.244598 
	C343.569458,258.149780 338.702911,217.538696 340.059448,177.073639 
	C340.229156,172.011322 338.764099,166.894211 338.051056,161.382111 
	C339.338928,166.187469 341.707886,171.404251 341.751495,176.640381 
	C342.040253,211.303619 342.010101,245.973145 341.605255,280.635010 
	C341.537506,286.435516 339.139099,292.208801 337.545288,298.244598 
z"/>
<path fill="#B77041" opacity="1.000000" stroke="none" 
	d="
M185.349091,164.910858 
	C186.738525,163.990860 188.470810,162.342682 190.324753,162.192108 
	C197.937042,161.573776 205.585419,161.154968 213.222244,161.126465 
	C242.667374,161.016571 272.114349,160.958771 301.557343,161.233490 
	C305.617462,161.271362 309.659088,163.286591 313.851440,164.708344 
	C310.277069,164.341599 306.563019,163.070053 302.843750,163.054672 
	C267.208496,162.907303 231.572189,162.920975 195.936844,163.058624 
	C192.538239,163.071747 189.144119,164.239517 185.349091,164.910858 
z"/>
<path fill="#B07245" opacity="1.000000" stroke="none" 
	d="
M160.368866,161.976028 
	C160.610031,162.676849 160.969589,163.805984 160.617325,164.631271 
	C156.743515,173.706268 158.043411,183.267929 157.894852,192.678543 
	C157.583038,212.430115 157.233521,232.182907 157.177597,251.935989 
	C157.143814,263.866241 157.379028,275.811523 158.014618,287.722229 
	C158.257568,292.274567 159.953812,296.749390 160.985626,301.651184 
	C159.337692,296.597870 156.338409,291.170898 156.265930,285.705078 
	C155.798828,250.478729 155.776566,215.241989 156.124664,180.013733 
	C156.183243,174.084213 158.749252,168.179443 160.368866,161.976028 
z"/>
<path fill="#C17947" opacity="1.000000" stroke="none" 
	d="
M232.646942,262.965240 
	C232.560638,257.030151 235.752594,253.405014 240.419312,251.599777 
	C244.207001,250.134583 248.198196,250.767807 251.293747,254.249100 
	C254.594223,257.960907 254.880478,262.019012 252.913223,266.221313 
	C250.634232,271.089569 245.469955,273.219116 239.356400,271.925537 
	C234.866943,270.975586 232.788132,267.856415 232.646942,262.965240 
M246.526321,269.362213 
	C250.813934,268.096191 252.646591,264.509521 251.643402,260.913879 
	C250.829529,257.996674 248.142822,254.775146 245.424088,253.422501 
	C241.910248,251.674271 238.327789,254.122879 236.962311,257.562744 
	C235.858994,260.342133 235.206589,264.107239 236.206467,266.728516 
	C237.763992,270.811707 242.013748,270.333191 246.526321,269.362213 
z"/>
<path fill="#B77041" opacity="1.000000" stroke="none" 
	d="
M178.348907,292.117950 
	C174.450287,290.947479 174.046371,287.487549 174.037109,283.896576 
	C173.999344,269.238953 173.994217,254.581268 173.999939,239.923599 
	C174.007675,220.102127 174.052017,200.280640 174.045135,180.459167 
	C174.043427,175.527679 175.206985,171.225723 180.161011,168.491455 
	C175.990891,174.050308 174.969666,180.565338 175.001587,187.604462 
	C175.141998,218.566681 174.950790,249.530731 175.191696,280.491699 
	C175.221069,284.267975 177.132965,288.029633 178.348907,292.117950 
z"/>
<path fill="#D78756" opacity="1.000000" stroke="none" 
	d="
M281.739990,344.635559 
	C281.366028,343.461548 280.948029,341.830688 280.947021,340.199524 
	C280.924866,304.811493 280.945343,269.423431 280.981567,234.035370 
	C280.982758,232.886581 281.235657,231.738037 281.551270,230.198044 
	C281.900848,231.597794 282.070374,233.388885 282.132751,235.804413 
	C282.039215,236.812286 282.052887,237.195709 282.066528,237.579147 
	C282.161133,238.202805 282.255707,238.826477 282.208588,239.941406 
	C282.066864,240.432663 282.084167,240.630829 282.084167,240.630829 
	C282.164093,241.242920 282.243988,241.854996 282.243469,243.005676 
	C282.245453,243.714828 282.367493,243.849396 282.529144,243.947998 
	C282.466187,249.463272 282.361084,254.978455 282.347504,260.493866 
	C282.285339,285.736450 282.257690,310.979156 282.190094,336.221741 
	C282.182983,338.874268 281.994476,341.526306 281.739990,344.635559 
z"/>
<path fill="#B77041" opacity="1.000000" stroke="none" 
	d="
M235.176056,303.304932 
	C232.087372,302.169495 228.818375,300.707123 225.492447,299.388245 
	C217.476929,296.209686 209.365707,297.319672 201.065872,298.290344 
	C193.989655,299.117920 186.579071,299.280090 180.126251,294.296936 
	C187.942596,297.780396 196.514313,298.204407 204.719894,296.362000 
	C216.147720,293.796082 225.921906,296.127380 235.176056,303.304932 
z"/>
<path fill="#B77041" opacity="1.000000" stroke="none" 
	d="
M308.699524,299.112854 
	C308.314941,300.512299 307.296082,301.923462 306.951660,303.483490 
	C306.347076,306.221741 304.895081,310.029053 306.109955,311.595093 
	C307.630493,313.555145 312.029999,315.167297 314.222931,314.348389 
	C319.671082,312.313995 324.618164,308.891052 329.664917,305.856842 
	C331.199280,304.934357 332.402313,303.460724 334.024292,302.128357 
	C329.909760,311.228912 322.023590,315.293640 312.407318,315.844360 
	C309.577515,316.006470 305.237823,314.361603 304.069366,312.202881 
	C302.853668,309.956879 304.369537,306.013062 305.225281,302.961426 
	C305.628387,301.524017 307.281952,300.437256 308.699524,299.112854 
z"/>
<path fill="#D28755" opacity="1.000000" stroke="none" 
	d="
M262.058075,236.372620 
	C262.673981,237.620743 263.926147,239.276154 263.926453,240.931793 
	C263.930725,262.721161 263.758545,284.510529 263.483032,306.695190 
	C263.172516,296.681732 262.938873,286.273499 262.865448,275.864136 
	C262.783813,264.291779 262.874054,252.718277 262.816467,241.145645 
	C262.809204,239.689301 262.357971,238.235184 262.058075,236.372620 
z"/>
<path fill="#BF7A53" opacity="1.000000" stroke="none" 
	d="
M177.252029,313.964020 
	C187.820465,314.287354 198.422424,314.219818 208.941147,315.122406 
	C213.274094,315.494202 217.428040,317.952301 221.838684,319.768677 
	C216.368301,316.947937 210.361862,315.936920 203.886398,315.910889 
	C194.821487,315.874451 185.759995,314.989471 176.684464,314.243378 
	C176.865265,314.000793 177.058655,313.982422 177.252029,313.964020 
z"/>
<path fill="#D28755" opacity="1.000000" stroke="none" 
	d="
M260.661407,313.120483 
	C257.082642,317.078888 252.872604,314.619232 248.843475,313.287750 
	C247.222519,312.752075 245.907898,311.289398 244.237488,309.965576 
	C247.666183,311.149475 251.236862,312.873566 254.992065,313.959717 
	C256.545502,314.409027 258.494324,313.491425 260.661407,313.120483 
z"/>
<path fill="#BF7A53" opacity="1.000000" stroke="none" 
	d="
M239.769501,333.726257 
	C242.580383,335.555664 245.605148,337.636841 248.659241,340.070068 
	C245.786835,338.274078 242.885101,336.126038 239.769501,333.726257 
z"/>
<path fill="#BF7A53" opacity="1.000000" stroke="none" 
	d="
M260.342682,349.144409 
	C264.638519,350.253937 269.133911,351.639740 274.080017,353.085144 
	C268.845337,355.744385 264.578705,353.014832 260.342682,349.144409 
z"/>
<path fill="#B07245" opacity="1.000000" stroke="none" 
	d="
M162.013641,304.340546 
	C164.432083,306.283142 166.918533,308.562225 169.484558,311.181763 
	C167.069962,309.240509 164.575806,306.958740 162.013641,304.340546 
z"/>
<path fill="#D28755" opacity="1.000000" stroke="none" 
	d="
M248.870819,226.612610 
	C252.020416,228.047668 255.423813,229.717575 258.908447,231.729050 
	C255.701355,230.329559 252.412979,228.588516 248.870819,226.612610 
z"/>
<path fill="#C17C48" opacity="1.000000" stroke="none" 
	d="
M172.473984,148.719666 
	C170.384537,150.971939 167.959595,153.333771 165.231888,155.845398 
	C167.332245,153.606537 169.735367,151.217865 172.473984,148.719666 
z"/>
<path fill="#A9683E" opacity="1.000000" stroke="none" 
	d="
M334.291931,154.997406 
	C332.527618,153.579193 330.615784,151.876328 328.653564,149.834625 
	C330.450226,151.234787 332.297302,152.973755 334.291931,154.997406 
z"/>
<path fill="#D28755" opacity="1.000000" stroke="none" 
	d="
M237.667343,221.447723 
	C240.153656,222.304688 242.892548,223.421295 245.805832,224.852829 
	C243.293457,224.014297 240.606689,222.860840 237.667343,221.447723 
z"/>
<path fill="#A9683E" opacity="1.000000" stroke="none" 
	d="
M327.171631,148.156036 
	C325.400848,147.760712 323.426910,147.088531 321.235901,146.140244 
	C323.002045,146.535812 324.985260,147.207474 327.171631,148.156036 
z"/>
<path fill="#BF7A53" opacity="1.000000" stroke="none" 
	d="
M235.124054,330.268982 
	C236.464188,330.944489 237.977234,331.900421 239.578796,333.198914 
	C238.210526,332.544098 236.753769,331.546783 235.124054,330.268982 
z"/>
<path fill="#BF7A53" opacity="1.000000" stroke="none" 
	d="
M222.071198,320.309326 
	C223.221802,320.813538 224.516083,321.610657 225.894073,322.747040 
	C224.723480,322.258270 223.469177,321.430267 222.071198,320.309326 
z"/>
<path fill="#D28755" opacity="1.000000" stroke="none" 
	d="
M263.040833,309.144958 
	C262.705048,310.195709 262.180847,311.537567 261.346069,312.970428 
	C261.641174,311.852966 262.246796,310.644501 263.040833,309.144958 
z"/>
<path fill="#C17C48" opacity="1.000000" stroke="none" 
	d="
M164.665222,156.060211 
	C164.179062,157.228241 163.389038,158.519958 162.260315,159.899185 
	C162.734879,158.719101 163.548141,157.451508 164.665222,156.060211 
z"/>
<path fill="#BF7A53" opacity="1.000000" stroke="none" 
	d="
M250.093307,341.296753 
	C251.233093,341.800079 252.533417,342.584442 253.924225,343.693481 
	C252.761093,343.204742 251.507477,342.391266 250.093307,341.296753 
z"/>
<path fill="#BF7A53" opacity="1.000000" stroke="none" 
	d="
M231.121414,327.272644 
	C232.248764,327.790833 233.529434,328.595306 234.917175,329.718262 
	C233.774399,329.210785 232.524567,328.384827 231.121414,327.272644 
z"/>
<path fill="#B07245" opacity="1.000000" stroke="none" 
	d="
M176.939606,313.756836 
	C177.058655,313.982422 176.865265,314.000793 176.381470,314.020416 
	C174.810532,313.679504 173.529984,313.337341 171.979187,312.795837 
	C173.348358,312.914215 174.987762,313.231903 176.939606,313.756836 
z"/>
<path fill="#BF7A53" opacity="1.000000" stroke="none" 
	d="
M227.680588,324.763184 
	C228.594070,325.137543 229.708328,325.761169 230.921951,326.704498 
	C229.974670,326.353607 228.928009,325.682983 227.680588,324.763184 
z"/>
<path fill="#D28755" opacity="1.000000" stroke="none" 
	d="
M241.277222,307.314941 
	C240.476669,307.094604 239.483719,306.609222 238.365204,305.779999 
	C239.188049,305.974091 240.136444,306.511993 241.277222,307.314941 
z"/>
<path fill="#A9683E" opacity="1.000000" stroke="none" 
	d="
M338.024597,160.643768 
	C337.403412,160.130676 336.752136,159.288147 336.046967,158.106354 
	C336.660187,158.616165 337.327332,159.465256 338.024597,160.643768 
z"/>
<path fill="#D28755" opacity="1.000000" stroke="none" 
	d="
M244.222229,309.539551 
	C243.405777,309.294342 242.441467,308.737732 241.273651,307.912231 
	C242.071548,308.171600 243.072968,308.699890 244.222229,309.539551 
z"/>
<path fill="#D28755" opacity="1.000000" stroke="none" 
	d="
M260.016418,233.294891 
	C260.590820,233.786774 261.254089,234.580902 261.975372,235.692795 
	C261.390656,235.206100 260.747955,234.401627 260.016418,233.294891 
z"/>
<path fill="#D28755" opacity="1.000000" stroke="none" 
	d="
M246.067337,225.346375 
	C246.708145,225.376602 247.586060,225.665573 248.726410,226.196594 
	C248.094055,226.160797 247.199249,225.882965 246.067337,225.346375 
z"/>
<path fill="#B77041" opacity="1.000000" stroke="none" 
	d="
M237.009659,305.250488 
	C236.524658,304.863434 236.039658,304.476379 235.427490,303.798950 
	C236.040421,303.846466 236.780487,304.184387 237.478210,304.842224 
	C237.435867,305.162201 237.009659,305.250488 237.009659,305.250488 
z"/>
<path fill="#BF7A53" opacity="1.000000" stroke="none" 
	d="
M258.067841,347.271484 
	C258.605835,347.423126 259.260895,347.850769 260.019958,348.567444 
	C259.477600,348.420166 258.831268,347.983826 258.067841,347.271484 
z"/>
<path fill="#BF7A53" opacity="1.000000" stroke="none" 
	d="
M255.769714,345.462646 
	C256.331726,345.611115 257.025208,346.050446 257.869171,346.767578 
	C257.313477,346.614716 256.607330,346.184113 255.769714,345.462646 
z"/>
<path fill="#B77041" opacity="1.000000" stroke="none" 
	d="
M183.098419,166.324524 
	C183.373505,165.938797 183.898376,165.467743 184.694824,164.971222 
	C184.427002,165.376923 183.887619,165.808060 183.098419,166.324524 
z"/>
<path fill="#A9683E" opacity="1.000000" stroke="none" 
	d="
M335.817230,156.951248 
	C335.452026,156.839691 335.095520,156.451767 334.711609,155.794098 
	C335.064819,155.907883 335.445343,156.291367 335.817230,156.951248 
z"/>
<path fill="#BF7A53" opacity="1.000000" stroke="none" 
	d="
M254.119339,344.268250 
	C254.511932,344.271790 255.046875,344.553589 255.753784,345.095947 
	C255.371063,345.086487 254.816376,344.816498 254.119339,344.268250 
z"/>
<path fill="#B77041" opacity="1.000000" stroke="none" 
	d="
M180.670792,168.382767 
	C180.765839,168.045776 181.126678,167.581055 181.778687,167.024719 
	C181.692093,167.373764 181.314346,167.814407 180.670792,168.382767 
z"/>
<path fill="#E5752B" opacity="1.000000" stroke="none" 
	d="
M282.183441,237.404526 
	C282.052887,237.195709 282.039215,236.812286 282.049866,236.242920 
	C282.165649,236.310242 282.276093,236.558777 282.340424,236.818741 
	C282.371613,236.944763 282.316437,237.092178 282.183441,237.404526 
z"/>
<path fill="#BF7A53" opacity="1.000000" stroke="none" 
	d="
M226.024841,323.302124 
	C226.404907,323.356415 226.894165,323.690430 227.509430,324.308655 
	C227.134979,324.255859 226.634491,323.918823 226.024841,323.302124 
z"/>
<path fill="#B07245" opacity="1.000000" stroke="none" 
	d="
M161.686188,160.032822 
	C161.665207,160.419113 161.366119,160.935394 160.801697,161.603821 
	C160.826935,161.224915 161.117523,160.693863 161.686188,160.032822 
z"/>
<path fill="#B07245" opacity="1.000000" stroke="none" 
	d="
M169.872772,311.742523 
	C170.218918,311.714722 170.759125,311.884216 171.453979,312.307648 
	C171.094681,312.354370 170.580765,312.147095 169.872772,311.742523 
z"/>
<path fill="#B77041" opacity="1.000000" stroke="none" 
	d="
M179.933319,293.740356 
	C179.588699,293.665863 179.138184,293.332550 178.598557,292.719818 
	C178.948776,292.787445 179.388107,293.134521 179.933319,293.740356 
z"/>
<path fill="#B07245" opacity="1.000000" stroke="none" 
	d="
M160.967865,302.296387 
	C161.270294,302.480103 161.584183,302.975739 161.943512,303.766113 
	C161.652420,303.576691 161.315887,303.092529 160.967865,302.296387 
z"/>
<path fill="#E5752B" opacity="1.000000" stroke="none" 
	d="
M282.154114,240.566910 
	C282.084167,240.630829 282.066864,240.432663 282.077942,240.401337 
	C282.089020,240.370010 282.224091,240.502991 282.154114,240.566910 
z"/>
<path fill="#A9683E" opacity="1.000000" stroke="none" 
	d="
M328.329224,149.161652 
	C328.094208,149.354355 327.837677,149.218414 327.571930,148.742676 
	C327.806213,148.565063 328.054535,148.708450 328.329224,149.161652 
z"/>
<path fill="#E5752B" opacity="1.000000" stroke="none" 
	d="
M282.474487,243.765839 
	C282.367493,243.849396 282.245453,243.714828 282.132721,243.459137 
	C282.102417,243.374023 282.419800,243.583694 282.474487,243.765839 
z"/>
<path fill="#D28755" opacity="1.000000" stroke="none" 
	d="
M259.006409,232.256012 
	C259.196136,232.204865 259.462158,232.421753 259.870697,232.854706 
	C259.703033,232.888550 259.392914,232.706299 259.006409,232.256012 
z"/>
<path fill="#BF7A53" opacity="1.000000" stroke="none" 
	d="
M248.759644,340.475586 
	C248.968399,340.357117 249.303314,340.512238 249.832428,340.866028 
	C249.646347,340.959534 249.266068,340.854340 248.759644,340.475586 
z"/>
<path fill="#D28755" opacity="1.000000" stroke="none" 
	d="
M237.250198,305.354431 
	C237.009659,305.250488 237.435867,305.162201 237.643890,305.098328 
	C237.851898,305.034424 238.272339,305.222137 238.401947,305.413971 
	C238.184616,305.556671 237.837677,305.507507 237.250198,305.354431 
z"/>
<path fill="#E77427" opacity="1.000000" stroke="none" 
	d="
M246.135818,269.475647 
	C242.013748,270.333191 237.763992,270.811707 236.206467,266.728516 
	C235.206589,264.107239 235.858994,260.342133 236.962311,257.562744 
	C238.327789,254.122879 241.910248,251.674271 245.424088,253.422501 
	C248.142822,254.775146 250.829529,257.996674 251.643402,260.913879 
	C252.646591,264.509521 250.813934,268.096191 246.135818,269.475647 
z"/>
</svg>